<?xml version="1.0" standalone="no"?>
<!DOCTYPE svg PUBLIC "-//W3C//DTD SVG 20010904//EN"
 "http://www.w3.org/TR/2001/REC-SVG-20010904/DTD/svg10.dtd">
<svg version="1.0" xmlns="http://www.w3.org/2000/svg"
 width="512.000000pt" height="512.000000pt" viewBox="0 0 512.000000 512.000000"
 preserveAspectRatio="xMidYMid meet">

<g transform="translate(0.000000,512.000000) scale(0.100000,-0.100000)"
fill="#000000" stroke="none">
<path d="M3860 4833 c-14 -2 -49 -11 -77 -19 l-53 -15 0 -53 0 -54 62 26 c89
35 174 41 231 13 52 -25 72 -57 70 -113 -2 -49 -30 -97 -120 -209 -81 -100
-103 -148 -103 -224 l0 -55 59 0 58 0 5 79 c5 92 16 110 129 222 85 84 102
117 102 194 0 71 -18 111 -69 153 -60 50 -186 73 -294 55z"/>
<path d="M2543 4390 c-40 -17 -51 -49 -56 -170 -5 -128 -28 -211 -88 -313 -30
-51 -37 -57 -59 -51 -244 59 -450 56 -685 -10 -49 -14 -144 -53 -209 -85
l-120 -60 -75 54 c-104 73 -166 167 -201 302 -13 54 -51 99 -95 113 -106 35
-262 -114 -330 -315 -67 -199 -9 -566 125 -788 30 -50 38 -72 32 -85 -18 -33
-61 -218 -73 -307 -16 -121 -6 -373 19 -490 11 -49 36 -140 57 -201 l38 -111
-56 -79 c-98 -141 -157 -278 -188 -437 -24 -124 -24 -220 0 -344 75 -385 367
-693 824 -870 321 -124 775 -146 1197 -58 249 52 515 161 720 295 398 262 625
600 646 965 6 100 -6 185 -26 185 -6 0 -10 -4 -10 -8 0 -40 -32 -236 -44 -270
-30 -84 -175 -342 -254 -453 -147 -204 -393 -385 -681 -499 -480 -190 -1008
-217 -1456 -74 -517 165 -835 527 -835 952 0 224 70 414 229 619 263 341 756
600 1268 668 225 30 534 17 740 -30 411 -94 723 -319 883 -635 29 -57 45 -95
94 -227 7 -18 16 -36 20 -40 12 -12 0 142 -16 217 -43 192 -218 419 -435 564
-99 65 -100 67 -107 113 -3 25 -6 58 -6 74 0 15 -5 51 -11 79 -16 77 -32 48
-37 -65 -3 -52 -6 -95 -9 -95 -3 0 -55 20 -116 44 -216 85 -432 123 -697 123
-360 0 -700 -77 -1015 -232 -190 -93 -334 -189 -456 -304 l-97 -91 -16 39
c-31 79 -66 240 -77 361 -12 126 -3 304 22 419 l11 50 94 47 c216 106 381 324
494 654 l46 134 85 37 c371 160 773 120 1119 -112 248 -166 426 -437 524 -796
26 -93 52 -163 63 -163 15 0 -9 249 -33 338 -26 93 -99 262 -147 339 l-26 41
11 146 c14 169 4 285 -38 449 -37 149 -83 238 -165 320 -101 101 -243 159
-316 127z m122 -114 c154 -72 260 -242 294 -473 13 -87 15 -333 2 -333 -5 0
-15 10 -24 23 -42 64 -270 233 -395 291 -34 16 -62 33 -62 38 0 4 17 52 39
105 48 121 71 222 71 307 0 76 2 77 75 42z m-1702 -283 c14 -40 37 -93 51
-117 38 -65 120 -165 171 -209 l45 -38 -62 -54 c-119 -104 -211 -221 -288
-367 l-47 -90 -31 54 c-57 100 -112 328 -112 462 0 39 7 98 15 131 19 73 76
186 120 241 34 42 94 79 107 66 4 -4 18 -40 31 -79z"/>
<path d="M3870 3950 l0 -60 60 0 60 0 0 60 0 60 -60 0 -60 0 0 -60z"/>
<path d="M2370 3338 c-44 -47 -17 -189 50 -259 42 -44 85 -52 113 -21 47 51
22 186 -48 258 -47 50 -82 57 -115 22z"/>
<path d="M1387 3200 c-40 -32 -60 -97 -55 -184 4 -89 27 -129 75 -134 80 -8
133 166 84 275 -18 38 -45 63 -69 63 -5 0 -21 -9 -35 -20z"/>
<path d="M3237 2170 c-72 -57 -48 -245 47 -373 52 -71 140 -88 180 -34 18 24
21 43 21 115 0 74 -4 96 -28 147 -66 142 -152 198 -220 145z"/>
<path d="M1030 1762 c-47 -46 -72 -124 -72 -221 0 -88 16 -143 53 -186 25 -29
38 -35 69 -35 134 0 193 332 79 448 -44 45 -80 43 -129 -6z"/>
</g>
</svg>
