<?xml version="1.0" standalone="no"?>
<!DOCTYPE svg PUBLIC "-//W3C//DTD SVG 20010904//EN"
 "http://www.w3.org/TR/2001/REC-SVG-20010904/DTD/svg10.dtd">
<svg version="1.0" xmlns="http://www.w3.org/2000/svg"
 width="510.000000pt" height="420.000000pt" viewBox="0 0 510.000000 420.000000"
 preserveAspectRatio="xMidYMid meet">

<g transform="translate(0.000000,420.000000) scale(0.100000,-0.100000)"
fill="#000000" stroke="none">
<path d="M1154 3988 c-43 -14 -60 -68 -40 -126 34 -95 224 -318 379 -442 31
-25 56 -48 57 -53 0 -4 -12 -12 -26 -17 -15 -6 -39 -20 -55 -31 -26 -18 -34
-19 -86 -10 -116 22 -130 18 -205 -54 -65 -64 -67 -67 -78 -138 -14 -81 -63
-219 -85 -237 -8 -7 -15 -18 -15 -25 0 -7 -7 -15 -15 -19 -38 -14 -6 -79 114
-231 l43 -55 -76 -84 c-63 -70 -82 -84 -104 -83 -23 2 -30 -5 -46 -41 -17 -37
-26 -44 -63 -54 -39 -9 -66 -33 -99 -86 -1 -2 -42 23 -91 56 -129 87 -329 179
-448 209 -203 49 -215 51 -215 30 0 -9 22 -19 55 -26 149 -33 281 -88 391
-161 94 -63 261 -207 287 -248 18 -28 57 -190 67 -281 13 -107 36 -157 27 -56
-19 184 -19 250 -2 315 17 65 43 125 51 118 2 -3 6 -40 9 -83 3 -43 7 -80 9
-83 2 -2 9 23 16 55 19 97 50 190 69 207 17 16 19 15 29 -11 6 -15 13 -57 17
-93 23 -244 34 -325 45 -350 10 -24 10 -24 5 5 -3 17 -11 92 -17 167 -11 129
-10 144 12 247 17 81 29 116 45 131 l22 21 6 -68 c4 -37 7 -115 8 -173 1 -93
2 -99 10 -55 5 28 13 100 19 160 8 96 34 202 53 221 3 3 19 -3 35 -15 43 -31
110 -57 165 -65 l49 -7 -6 -47 c-18 -149 -28 -326 -23 -410 4 -78 14 -127 51
-247 84 -268 94 -299 141 -409 25 -60 71 -189 101 -285 53 -167 121 -360 149
-426 7 -16 27 -77 45 -135 33 -105 136 -346 153 -357 21 -13 27 15 11 52 -33
80 -73 225 -89 326 -9 57 -20 113 -25 124 -4 11 -29 101 -55 200 -51 190 -105
324 -199 494 -73 131 -118 270 -171 531 -47 234 -28 572 45 771 16 46 28 84
27 86 -5 5 -76 -83 -117 -144 l-35 -53 -59 0 c-82 0 -103 18 -231 209 -85 125
-106 164 -102 183 21 81 117 340 136 366 21 30 26 32 86 32 54 0 72 -5 117
-32 29 -18 55 -36 58 -40 27 -36 105 -126 107 -124 2 2 -4 40 -12 85 -9 46
-15 101 -13 124 3 35 7 43 26 45 13 2 30 -2 38 -9 22 -18 28 -4 10 23 -22 31
-21 36 19 52 42 18 110 73 225 184 l86 82 118 0 118 0 76 -40 c131 -68 188
-129 248 -268 15 -34 28 -61 30 -59 9 9 -60 190 -86 225 -16 22 -56 61 -90 87
-85 65 -113 92 -106 103 9 15 134 22 215 11 224 -29 456 -187 643 -438 124
-167 123 -160 82 -316 -19 -74 -26 -127 -27 -205 -1 -101 0 -109 36 -188 34
-78 39 -102 18 -102 -16 0 -93 112 -127 184 -38 78 -36 59 8 -83 15 -52 48
-131 72 -175 24 -45 57 -107 74 -138 17 -31 70 -111 118 -178 82 -114 86 -122
68 -135 -23 -17 -58 -13 -216 26 -147 36 -170 36 -246 -2 -65 -32 -102 -69
-102 -101 0 -17 52 -117 125 -244 36 -61 7 -101 -138 -194 -48 -30 -87 -58
-87 -62 0 -4 -18 -13 -40 -19 -47 -14 -80 2 -106 54 -10 17 -19 27 -21 20 -7
-19 34 -88 61 -106 39 -26 78 -21 199 28 141 58 245 74 351 57 85 -15 168 -43
173 -59 5 -14 -69 -72 -107 -83 -29 -8 -30 -8 -30 26 0 19 -3 34 -7 34 -4 0
-26 -18 -49 -41 -58 -57 -111 -67 -211 -39 -84 23 -93 24 -93 10 0 -6 29 -25
65 -42 36 -18 65 -35 65 -38 0 -3 -25 -36 -55 -72 -99 -121 -156 -317 -200
-683 -9 -77 -27 -191 -41 -252 -13 -62 -24 -115 -24 -118 0 -3 20 -5 44 -5
l43 0 16 68 c40 164 58 248 86 405 17 93 45 219 62 280 28 101 38 122 101 210
77 109 87 116 213 143 97 20 139 41 184 88 31 32 40 36 86 36 77 0 124 39 172
143 63 134 -7 465 -125 598 -159 179 -209 261 -218 361 -9 94 1 101 169 109
187 10 331 37 518 99 156 52 290 117 370 179 64 51 81 70 108 128 45 94 41
137 -23 226 -38 54 -63 76 -129 116 -98 58 -192 106 -228 114 -80 20 -274 37
-412 37 -174 0 -327 -25 -448 -75 -34 -14 -66 -25 -71 -25 -4 0 -17 19 -29 43
-12 23 -48 66 -81 96 -89 81 -92 90 -83 251 12 194 9 238 -20 283 -22 32 -31
37 -63 37 -43 0 -121 -35 -266 -120 -100 -59 -105 -60 -177 -60 -49 -1 -81 -6
-93 -15 -12 -9 -43 -15 -80 -15 -34 0 -80 -5 -104 -10 -36 -9 -49 -7 -84 11
-28 14 -71 23 -132 28 -79 6 -96 5 -127 -12 l-36 -19 -79 40 c-43 22 -174 78
-290 125 -218 88 -290 106 -350 85z m2851 -777 c171 -36 335 -96 412 -150 88
-62 103 -92 79 -156 -20 -50 -54 -83 -127 -120 -47 -23 -162 -65 -180 -65 -4
0 -22 20 -38 44 -27 39 -57 63 -131 104 -14 7 -48 27 -77 43 -63 36 -194 55
-315 45 -95 -8 -98 0 -30 66 52 52 71 61 175 84 74 17 150 15 309 -7 42 -6 83
-9 90 -7 7 3 -39 22 -102 44 l-115 39 -185 0 c-182 0 -187 -1 -285 -33 -55
-19 -116 -42 -136 -53 -57 -30 -71 -26 -67 18 3 35 6 39 53 56 28 10 97 32
155 48 101 28 111 29 265 24 103 -3 192 -12 250 -24z m-300 -351 c-22 -22 -56
-52 -77 -66 -32 -23 -41 -25 -70 -16 -18 6 -52 14 -75 17 -24 4 -43 10 -43 14
0 20 159 76 240 84 19 2 42 5 50 5 8 1 -4 -16 -25 -38z m275 -42 c27 -18 50
-39 50 -47 0 -7 14 -31 31 -52 39 -49 36 -52 -83 -113 -100 -52 -109 -53 -342
-60 -168 -4 -177 -2 -126 35 22 16 40 34 40 39 0 6 6 10 14 10 7 0 26 10 42
23 21 16 307 191 322 196 1 1 25 -14 52 -31z m-541 -109 l56 -12 -31 -32 c-33
-36 -83 -65 -110 -65 -28 0 -74 50 -74 80 0 15 3 30 7 33 10 11 91 8 152 -4z
m-384 -942 c7 -43 -7 -97 -24 -97 -10 0 -71 103 -71 120 0 16 63 39 77 28 7
-5 15 -28 18 -51z m574 17 c31 -40 51 -119 51 -203 0 -61 -6 -89 -29 -142 -33
-77 -111 -159 -111 -117 0 7 15 28 34 48 49 51 80 160 73 258 -6 79 -19 106
-48 97 -25 -8 -32 10 -19 50 14 42 22 43 49 9z"/>
<path d="M4300 3004 c0 -4 20 -29 45 -55 25 -26 45 -54 45 -62 0 -19 20 -36
36 -30 18 7 18 72 0 95 -7 9 -36 26 -65 37 -57 23 -61 24 -61 15z"/>
<path d="M2774 3465 c4 -11 10 -55 13 -97 6 -79 23 -109 23 -40 0 40 -24 140
-36 151 -4 3 -4 -3 0 -14z"/>
<path d="M2380 3280 c0 -6 17 -45 39 -88 21 -42 46 -97 55 -122 13 -34 29 -54
66 -79 50 -34 143 -126 192 -191 45 -57 42 -26 -3 47 -61 96 -81 123 -194 253
-55 63 -109 132 -120 153 -19 36 -35 48 -35 27z"/>
<path d="M3040 3197 c0 -7 6 -36 14 -63 19 -65 37 -205 29 -232 -9 -37 17 -25
34 16 15 35 15 42 -7 127 -12 50 -29 107 -37 128 -15 36 -33 50 -33 24z"/>
<path d="M1350 3150 c-19 -3 -53 -15 -74 -26 -39 -19 -40 -21 -62 -114 -26
-115 -36 -200 -24 -200 5 0 10 23 12 52 3 45 7 53 33 68 17 10 33 15 38 13 4
-2 7 -23 7 -45 0 -36 7 -48 50 -94 28 -29 50 -57 50 -63 0 -19 49 -118 64
-131 14 -11 14 -9 5 18 -16 47 -8 84 23 102 23 12 31 13 48 2 11 -6 28 -12 38
-12 19 0 82 53 82 69 0 15 29 14 44 -2 21 -20 29 -55 36 -152 l7 -90 1 109 c2
94 -1 113 -19 142 -17 28 -20 48 -19 126 1 51 -3 107 -8 123 -8 24 -10 9 -11
-77 -1 -60 -5 -108 -10 -108 -5 0 -23 24 -40 54 -17 29 -60 86 -96 126 -36 40
-65 76 -65 81 0 9 -54 40 -67 38 -4 -1 -24 -5 -43 -9z"/>
<path d="M1921 3026 c-8 -9 -10 -28 -6 -49 6 -31 4 -35 -19 -41 -66 -16 1
-124 111 -179 46 -23 270 -74 280 -64 2 3 -10 18 -29 33 -18 15 -87 82 -154
148 -173 173 -169 169 -183 152z m64 -141 c0 -25 -4 -30 -25 -30 -16 0 -26 6
-28 18 -6 30 6 49 30 45 18 -2 23 -9 23 -33z"/>
<path d="M1253 2778 c17 -40 100 -224 103 -227 12 -14 13 14 2 55 -14 51 -87
183 -102 184 -4 0 -6 -6 -3 -12z"/>
<path d="M2498 2493 c6 -11 18 -25 26 -32 21 -17 103 -169 127 -234 l19 -52
-6 70 c-9 103 -50 177 -129 234 -35 25 -45 29 -37 14z"/>
<path d="M1737 2367 c-4 -15 -12 -98 -17 -184 -10 -149 -9 -164 15 -295 45
-243 164 -509 335 -748 128 -178 177 -282 273 -575 47 -143 93 -290 102 -328
10 -37 20 -66 22 -63 2 2 -6 92 -17 200 -19 181 -25 207 -71 342 -31 92 -63
166 -88 202 -149 222 -293 464 -371 624 -86 178 -90 190 -124 353 -28 131 -37
208 -43 335 -5 106 -11 155 -16 137z"/>
<path d="M1368 2105 c-10 -30 -36 -173 -43 -235 -5 -41 4 -110 35 -280 40
-219 43 -229 107 -370 125 -277 221 -516 269 -670 26 -85 51 -159 55 -164 4
-5 6 0 4 10 -3 10 -19 100 -36 198 -35 200 -98 397 -228 714 -62 150 -76 196
-107 355 -26 130 -38 222 -43 322 -3 77 -9 131 -13 120z"/>
<path d="M1950 1801 c0 -7 20 -61 44 -120 24 -58 66 -160 93 -226 38 -92 73
-155 153 -270 122 -177 109 -160 116 -153 3 3 -8 33 -25 67 -44 85 -42 101 12
101 50 1 285 58 242 59 -16 0 -61 -4 -100 -9 -67 -10 -73 -9 -147 21 -152 63
-165 79 -318 399 -39 80 -70 139 -70 131z"/>
<path d="M2776 742 c-49 -130 -92 -241 -95 -247 -18 -31 -33 -92 -46 -183 -18
-132 -21 -139 -51 -146 -34 -9 -40 -30 -20 -75 28 -62 104 -93 126 -52 6 12 8
74 4 168 -6 159 -5 165 74 423 64 212 102 344 99 346 -2 2 -43 -104 -91 -234z"/>
<path d="M2130 191 c0 -4 23 -49 51 -100 49 -88 52 -91 86 -91 l34 0 -20 28
c-11 16 -40 51 -64 78 -24 27 -49 59 -56 72 -12 22 -31 30 -31 13z"/>
</g>
</svg>
