<?xml version="1.0"?>
<svg xmlns:rdf="http://www.w3.org/1999/02/22-rdf-syntax-ns#" xmlns="http://www.w3.org/2000/svg" xmlns:cc="http://creativecommons.org/ns#" xmlns:dc="http://purl.org/dc/elements/1.1/" xmlns:svg="http://www.w3.org/2000/svg" id="svg2" viewBox="0 0 1364 1083" version="1.0">
  <path id="selection_to_path" stroke="#000" stroke-width="1.1178" d="m937.1 2.3278c-20.36-4.7912-21.61 33.699-0.5 29.398 17.7 4.61 35.7 10.952 49.18 24.302 22.12 16.211 46.82 36.353 50.22 66.292 0.3 37.34-26.6 66.31-51.09 90.1-29.76 27.41-62.46 51.36-96.42 72.7-44.07 22.28-96.62 19.72-138.26 48.22-59.01 36.72-105.46 93.35-169.83 121.09-16.24 7.65-35.82 12.27-45 30-15.64 24.96-12.04 60.83 9.35 81 22.25 24.2 59.8 30.6 88.39 15.31 37.73-13.32 77.84-18.67 117.59-16.67 35.24-0.43 72.76-6.86 100.38-31.46 28.57-21.79 59.71-44.56 96.45-45.92 27.28-2.45 55.04 3.01 79.84 15.14 14.9 0.03 24 16.2 35.5 24.26 15.5 11.53 22.1 35.07 11.6 52.31-12.5 21.3-40.9 24.43-61.9 17.12-19.37-6.23-35.36-20.53-55.39-25.18-49.19-15.28-106.64-4.46-143.97 33.46-28.89 25.94-62 47.51-98.9 58.46-40.8 16.48-84.04 37.54-107.18 78.36-14.63 25.81-27.57 57.32-56.51 68.65-31.36 10.33-62.37-8.55-86.76-27.45-63.45-42.95-140.61-69.64-216.76-58.29-61.46 9.89-115.47 49.13-154.07 98.73-29.624 31.31-69.517 55.06-85.758 97.66-17.085 44.5-26.368 91.88-45.358 135.68-5.35 22.3 25.411 33.6 37.213 15.2 45.906-47.2 97.47-91.15 128.4-151.36 19.32-33.88 9.17-79.94 37.08-109.44 27.59-29.12 67.12-40.04 104.31-48.58 42.56-6.38 83.97 10.59 123.07 25.9 36.78 15.11 69.3 38.99 104.55 57.36 36.23 23.62 68.28 54.26 106.98 73.84 59.66 37.41 106.62 95.68 172.9 121.68 47.35 17.3 96.4 39.7 147.8 32 26.81-4.8 52.99-12.8 79.55-18.8 29.8-7.2 59.8-16.4 84.6-35.9 24.5-17.82 42.7-43.1 65.9-62.66 70.1-64.02 150.7-117.74 206-197.53 26.5-36.99 37.9-83.69 36.5-129.46-1.8-77.3-35.5-154.12-93.6-203-20.7-17.63-43.6-32.19-65.6-47.88-50.5-34.16-106.8-61.05-167-69.42-17.3-4.96-36.4-1.91-52.8-10.49-11.2-15.2 9.4-25.47 21.3-28.46 22.8-8.7 43.3-23.48 62.4-38.99 18.4-16.18 36.7-33.76 48.7-55.71 14.1-29.22 8.8-69.96-18.7-88.708-20.5-15.503-41.2-30.944-62.8-44.677-29.1-17.932-61.9-28.865-95.53-32.204-12.04-1.8909-24.1-3.6342-36.07-5.9832zm-88.51 117.21c-55.2 15.51-108.55 52.36-131.16 108.87-11.29 37.01 23.36 78.28 60.01 72.8 39.83-0.07 79.15-12.15 114.6-30.46 16.98-9.43 30.93-24.93 48.13-31.66 12.86-9.35 2.52-35.27-11.32-20.91-14.93 10.71-28.89 24.86-47.65 27.49-25.71 7.38-57.9 8.11-77.79-13.25-11.71-17.73-0.94-41.72 14.49-52.81 15.19-13.35 34.96-22.79 44.02-42.28 2.4-8.53-4.68-18.41-13.33-17.79z"/>
  <metadata>
    <rdf:RDF>
      <cc:Work>
        <dc:format>image/svg+xml</dc:format>
        <dc:type rdf:resource="http://purl.org/dc/dcmitype/StillImage"/>
        <cc:license rdf:resource="http://creativecommons.org/licenses/publicdomain/"/>
        <dc:publisher>
          <cc:Agent rdf:about="http://openclipart.org/">
            <dc:title>Openclipart</dc:title>
          </cc:Agent>
        </dc:publisher>
        <dc:title>buffle</dc:title>
        <dc:date>2008-01-05T13:52:32</dc:date>
        <dc:description>animal, animal, buffalo, buffalo, clip art, clipart, icon, icon, image, media, png, public domain, silhouette, silhouette, svg, </dc:description>
        <dc:source>http://openclipart.org/detail/10684/buffle-by-yves_guillou-10684</dc:source>
        <dc:creator>
          <cc:Agent>
            <dc:title>yves_guillou</dc:title>
          </cc:Agent>
        </dc:creator>
        <dc:subject>
          <rdf:Bag>
            <rdf:li>animal</rdf:li>
            <rdf:li>buffalo</rdf:li>
            <rdf:li>clip art</rdf:li>
            <rdf:li>clipart</rdf:li>
            <rdf:li>icon</rdf:li>
            <rdf:li>image</rdf:li>
            <rdf:li>media</rdf:li>
            <rdf:li>png</rdf:li>
            <rdf:li>public domain</rdf:li>
            <rdf:li>silhouette</rdf:li>
            <rdf:li>svg</rdf:li>
          </rdf:Bag>
        </dc:subject>
      </cc:Work>
      <cc:License rdf:about="http://creativecommons.org/licenses/publicdomain/">
        <cc:permits rdf:resource="http://creativecommons.org/ns#Reproduction"/>
        <cc:permits rdf:resource="http://creativecommons.org/ns#Distribution"/>
        <cc:permits rdf:resource="http://creativecommons.org/ns#DerivativeWorks"/>
      </cc:License>
    </rdf:RDF>
  </metadata>
</svg>
