<?xml version="1.0" standalone="no"?>
<!DOCTYPE svg PUBLIC "-//W3C//DTD SVG 20010904//EN"
 "http://www.w3.org/TR/2001/REC-SVG-20010904/DTD/svg10.dtd">
<svg version="1.0" xmlns="http://www.w3.org/2000/svg"
 width="700.000000pt" height="615.000000pt" viewBox="0 0 700.000000 615.000000"
 preserveAspectRatio="xMidYMid meet">

<g transform="translate(0.000000,615.000000) scale(0.100000,-0.100000)"
fill="#000000" stroke="none">
<path d="M1705 6121 c-56 -14 -96 -42 -127 -89 -29 -46 -30 -49 -24 -142 7
-128 36 -234 97 -359 40 -81 67 -120 124 -180 l74 -77 -179 -179 -178 -178
-69 58 c-151 129 -332 231 -508 288 -100 32 -100 32 -320 32 l-220 0 -98 -34
c-221 -77 -274 -142 -249 -311 24 -163 125 -386 238 -528 163 -204 434 -356
710 -397 54 -8 102 -19 107 -24 7 -7 6 -55 -3 -140 -31 -304 12 -649 117 -931
49 -133 151 -327 231 -440 87 -125 308 -346 440 -440 56 -41 102 -79 102 -86
0 -6 -30 -76 -66 -155 -134 -294 -278 -683 -370 -1004 -66 -228 -152 -569
-156 -621 l-3 -37 70 -18 c39 -10 119 -28 178 -41 88 -18 110 -20 116 -9 5 7
34 111 65 230 111 418 224 771 337 1051 67 167 175 410 187 422 4 4 62 -10
127 -33 354 -120 654 -169 1030 -169 377 0 681 49 1000 160 66 23 129 44 141
47 18 4 29 -13 83 -129 177 -374 346 -855 481 -1375 24 -88 46 -166 50 -173 6
-9 51 -1 176 29 93 23 175 46 183 51 20 12 0 101 -94 430 -128 446 -217 696
-378 1065 -55 127 -106 244 -113 262 l-14 32 98 72 c122 91 368 338 445 445
178 252 293 535 343 840 20 121 24 514 6 611 l-9 53 31 5 c214 34 335 69 467
136 172 86 273 169 379 310 146 196 243 476 216 623 -15 77 -87 129 -259 188
-87 30 -102 32 -272 36 -155 3 -193 1 -273 -17 -208 -46 -409 -151 -588 -307
-40 -35 -77 -64 -81 -64 -5 0 -90 82 -191 183 l-182 182 51 50 c129 127 211
309 240 535 15 112 4 154 -55 208 -26 24 -62 46 -87 52 -83 23 -145 -8 -219
-105 -88 -116 -218 -237 -306 -282 -87 -46 -176 -73 -235 -73 -20 0 -95 18
-165 39 -177 55 -308 87 -460 113 -112 19 -165 22 -404 23 -348 0 -484 -20
-825 -123 -170 -52 -215 -57 -298 -38 -138 32 -266 115 -361 234 -30 37 -74
92 -98 122 -64 79 -129 109 -203 91z m1993 -681 c532 -41 1072 -305 1403 -683
157 -180 269 -376 344 -599 55 -166 68 -274 62 -538 -4 -196 -8 -239 -30 -330
-75 -313 -196 -529 -422 -756 -130 -130 -245 -217 -390 -294 l-60 -31 -6 73
c-25 283 -275 502 -672 587 -214 46 -579 53 -797 16 -431 -72 -729 -311 -775
-620 -4 -25 -13 -45 -20 -45 -6 0 -49 23 -95 50 -418 251 -670 619 -755 1100
-48 274 -19 606 76 860 188 500 628 906 1189 1098 307 105 597 139 948 112z
m-2888 -556 c127 -38 247 -114 376 -237 l92 -88 -30 -77 c-17 -42 -34 -80 -37
-84 -10 -11 -189 10 -270 33 -129 35 -224 92 -326 194 -70 69 -99 107 -128
166 -41 84 -45 105 -19 113 36 11 287 -4 342 -20z m5724 20 c24 -9 19 -38 -18
-112 -118 -235 -304 -361 -579 -391 -172 -19 -161 -23 -196 67 l-30 77 92 90
c146 144 312 239 459 264 62 10 249 14 272 5z m-2686 -2233 c269 -57 439 -158
512 -303 49 -100 37 -220 -29 -265 -35 -23 -232 -74 -381 -97 -342 -54 -759
-43 -1075 28 -150 34 -267 69 -292 89 -24 19 -25 24 -21 88 18 240 298 433
696 479 134 15 483 4 590 -19z"/>
<path d="M2532 4252 c-73 -26 -122 -69 -157 -137 -25 -48 -29 -69 -29 -130 0
-61 4 -82 29 -131 133 -258 531 -164 529 126 -1 194 -194 335 -372 272z m153
-207 c27 -27 33 -79 12 -105 -19 -25 -60 -50 -80 -50 -33 0 -77 54 -77 95 0
76 91 115 145 60z"/>
<path d="M4265 4253 c-73 -25 -158 -112 -179 -183 -20 -67 -20 -103 -1 -167
18 -60 79 -132 143 -171 41 -23 57 -27 127 -26 61 0 89 5 120 21 57 30 110 89
141 157 22 49 26 68 21 115 -16 185 -202 312 -372 254z m150 -209 c14 -13 25
-34 25 -49 0 -86 -93 -130 -147 -69 -42 46 -22 121 37 142 31 12 53 5 85 -24z"/>
<path d="M3085 2445 c-22 -8 -41 -15 -42 -15 -2 0 -16 -19 -33 -42 -36 -50
-39 -92 -7 -138 35 -52 80 -74 153 -73 77 1 130 25 156 73 38 72 10 146 -72
188 -51 25 -98 27 -155 7z"/>
<path d="M3773 2450 c-136 -32 -167 -198 -48 -255 52 -24 153 -24 196 1 73 43
98 124 57 183 -39 57 -130 89 -205 71z"/>
</g>
</svg>
