<?xml version="1.0" standalone="no"?>
<!DOCTYPE svg PUBLIC "-//W3C//DTD SVG 20010904//EN"
 "http://www.w3.org/TR/2001/REC-SVG-20010904/DTD/svg10.dtd">
<svg version="1.0" xmlns="http://www.w3.org/2000/svg"
 width="961.000000pt" height="960.000000pt" viewBox="0 0 961.000000 960.000000"
 preserveAspectRatio="xMidYMid meet">

<g transform="translate(0.000000,960.000000) scale(0.100000,-0.100000)"
fill="#000000" stroke="none">
<path d="M3299 7048 c-20 -11 -47 -39 -59 -61 -20 -35 -22 -48 -16 -118 14
-173 85 -340 185 -439 l56 -55 -146 -145 -146 -146 -44 39 c-127 111 -279 199
-426 244 -81 25 -102 27 -258 27 -167 1 -172 0 -265 -32 -163 -57 -205 -98
-203 -203 2 -127 85 -332 186 -464 137 -178 377 -314 602 -340 99 -11 93 -4
79 -93 -18 -105 -17 -298 1 -434 60 -452 280 -825 640 -1083 44 -31 81 -58 83
-59 1 -2 -20 -50 -46 -107 -109 -232 -231 -560 -316 -851 -66 -224 -138 -520
-129 -528 10 -9 293 -73 299 -67 2 2 26 91 53 198 67 263 130 469 207 683 56
153 90 235 202 488 12 27 22 36 32 32 8 -3 74 -26 147 -50 519 -172 1141 -161
1647 30 37 14 70 26 73 26 8 0 117 -238 171 -370 98 -244 215 -609 288 -902
14 -60 30 -108 34 -108 17 0 291 68 297 74 13 13 -109 451 -203 729 -81 235
-125 347 -221 560 -42 92 -74 169 -72 170 419 287 659 663 725 1135 16 114 15
373 -2 474 l-6 36 48 6 c246 31 475 139 610 289 134 150 234 368 237 522 2
109 -39 151 -203 206 -82 28 -113 33 -226 37 -99 3 -151 0 -215 -13 -171 -34
-339 -119 -482 -244 l-78 -67 -152 150 -153 151 47 45 c94 90 158 224 186 387
19 113 14 159 -24 203 -35 42 -73 60 -126 60 -59 0 -102 -30 -151 -105 -95
-144 -255 -255 -391 -273 -52 -7 -71 -4 -140 19 -486 165 -941 171 -1406 20
-142 -46 -188 -50 -280 -21 -118 36 -216 114 -307 244 -30 43 -69 87 -86 97
-42 25 -111 24 -157 -3z m1742 -543 c614 -81 1130 -457 1324 -963 59 -153 76
-240 82 -412 6 -173 -5 -280 -42 -425 -84 -322 -303 -605 -599 -774 -98 -56
-110 -59 -102 -33 4 12 2 47 -4 79 -34 188 -206 345 -455 418 -243 71 -622 74
-860 8 -279 -77 -464 -246 -506 -461 l-12 -62 -56 31 c-373 210 -598 547 -652
975 -19 155 -7 364 30 507 103 404 408 755 825 952 194 92 373 141 611 169 80
9 321 4 416 -9z m-2380 -461 c97 -39 177 -92 267 -179 l72 -70 -27 -69 -28
-69 -80 6 c-227 16 -420 138 -510 321 -32 65 -36 79 -24 87 8 6 66 8 134 6
104 -3 130 -8 196 -33z m4628 27 c12 -8 8 -24 -28 -97 -98 -197 -276 -305
-519 -315 l-84 -4 -24 64 -25 65 53 54 c110 113 239 194 359 226 60 16 246 21
268 7z m-2289 -1801 c252 -31 434 -121 502 -246 33 -62 42 -113 28 -163 -18
-67 -34 -78 -165 -110 -395 -98 -821 -91 -1208 21 -120 34 -125 40 -113 124
24 179 228 323 521 368 109 17 320 20 435 6z"/>
<path d="M4045 5551 c-109 -28 -178 -116 -178 -226 0 -223 278 -315 415 -138
106 137 14 345 -162 366 -25 3 -58 2 -75 -2z m108 -183 c24 -28 21 -65 -8 -93
-39 -39 -86 -32 -111 17 -40 77 63 142 119 76z"/>
<path d="M5455 5551 c-128 -33 -205 -156 -175 -282 10 -42 24 -64 64 -105 66
-65 127 -83 215 -64 109 24 196 151 176 257 -25 133 -158 225 -280 194z m84
-166 c79 -40 17 -164 -64 -127 -51 24 -55 100 -6 127 33 18 36 18 70 0z"/>
<path d="M4450 4062 c-19 -11 -43 -35 -53 -56 -18 -33 -18 -40 -5 -74 20 -53
68 -82 135 -82 91 0 143 43 143 118 0 91 -125 144 -220 94z"/>
<path d="M4994 4061 c-44 -27 -64 -59 -64 -101 1 -66 56 -110 140 -110 68 0
115 26 136 76 32 77 -25 145 -125 152 -43 2 -63 -2 -87 -17z"/>
</g>
</svg>
